<svg xmlns="http://www.w3.org/2000/svg" viewBox="0 0 51.74 32.22"><defs><style>.cls-1,.cls-3{fill:#242415;}.cls-2{fill:#d9d900;}.cls-2,.cls-3{fill-rule:evenodd;}</style></defs><g id="Capa_2" data-name="Capa 2"><g id="tablet"><path class="cls-1" d="M5.52,2.93v1.2H4.28c-.7,0-1.06,1-1.06,3v4.11a7.17,7.17,0,0,1-.65,3.37,4.23,4.23,0,0,1-1.21,1.55v.06a5.12,5.12,0,0,1,1.23,1.62,7.09,7.09,0,0,1,.63,3.33v4.08c0,2,.36,3,1.06,3H5.52v1.2H3.91c-1.33,0-2-1.2-2-3.6V21.73q0-4.9-1.9-4.91v-1.2q1.91,0,1.9-4.88V6.57c0-2.42.78-3.64,2.34-3.64Z"/><path class="cls-1" d="M46.22,2.76V4h1.24c.71,0,1.06,1,1.06,3V11.1a7,7,0,0,0,.66,3.37A4.13,4.13,0,0,0,50.38,16v.05a5.36,5.36,0,0,0-1.23,1.62A7.11,7.11,0,0,0,48.52,21v4.09c0,2-.35,3-1.06,3H46.22v1.19h1.61c1.34,0,2-1.19,2-3.59V21.56c0-3.27.63-4.92,1.9-4.92V15.45q-1.91,0-1.9-4.88V6.4c0-2.42-.78-3.64-2.34-3.64Z"/><path class="cls-2" d="M31.36,17.49c-1.27-.35-2.66-.57-3.93-.92-.12.12-.12-.12-.12.23s3.82,4.95,5.78,7.25a.82.82,0,0,0,.69.34c.93,0,3.58-3.57,3.58-4.25,0-1.73-2.54-1.73-3.23-2C33.21,18,32.16,17.72,31.36,17.49Zm6.81-1.61c0-1.27-.46-3.68-1.85-4.49l-8.77,4.38,8.89,1.72C37.82,17.26,38.17,17,38.17,15.88Zm-4.74-10a4.17,4.17,0,0,0-1.27-.81c-.34,0-.69.46-.8.7C30.09,8.63,27,14.27,27,14.5s1.15-.23,2.42-.92c2.08-1.15,4.39-2.19,6.35-3.34.12-.11.12-.23.12-.58C35.86,8.51,34.94,7.25,33.43,5.87Zm-7,11.45h-.34V22a36.85,36.85,0,0,0,.46,5.07c.12.34,1.27.8,1.73.8.92,0,3.69-1,3.69-2.53A2.37,2.37,0,0,0,31.36,24C29.74,21.8,28.47,19.27,26.39,17.32Zm-1.1,9.49-.11-9.44c-.35.12-.46.12-.58.23-1.62,2.07-3.35,4.15-5.08,6.22a5.75,5.75,0,0,0-.93,1.49c0,1.73,4.63,2.88,5.43,2.88A1.31,1.31,0,0,0,25.29,26.81Zm-1.44-10.5c-.46,0-1.15-.12-1.5-.12l-5.08.46H15.42c-.81,0-1.5.23-1.5,1.38,0,.58,1.15,5.76,3.35,5.76.23,0,.35,0,.46-.12,1.61-1.84,3.12-3.8,4.73-5.41.46-.57,1.51-1.38,1.51-1.72S24,16.42,23.85,16.31Zm.09-.58a.73.73,0,0,0,.33,0,.9.9,0,0,1-.25,0Zm-6.73-6.9a2.11,2.11,0,0,0-1.16-.23,9,9,0,0,0-2,5.41c0,1.61,1.73,1.49,3,1.49.35,0,2.08-.11,3-.23h4.15v-.34C22,13,19.52,10.79,17.21,8.83ZM24.89,14c-.69-3.34-.58-6.33-2.08-9.55a3.58,3.58,0,0,0-2,.34C20.39,5,17.5,6.54,17.5,7.58c0,.34,5.31,5.17,7.28,6.79C25,14.13,24.89,14,24.89,14ZM29.8,4.08a26.16,26.16,0,0,0-4.16-.45,1.56,1.56,0,0,0-.81.11.7.7,0,0,0-.46.69L26,13.86c.92-.69,1.61-2.76,2.31-4,.11-.35,2.19-3.91,2.19-4.84,0-.34,0-.34-.11-.45A.77.77,0,0,0,29.8,4.08ZM25.87,0A16.11,16.11,0,1,0,42,16.11,16.14,16.14,0,0,0,25.87,0ZM40.32,19.77c-.25.78-.53,1.54-.83,2.29A6.4,6.4,0,0,1,38.36,24a12.83,12.83,0,0,1-1.65,1.47,22.09,22.09,0,0,0-1.46,1.83,9.74,9.74,0,0,1-1.91,1.19,9.17,9.17,0,0,1-1.85,1.11,32.39,32.39,0,0,1-4.33,1.23,17.38,17.38,0,0,1-4.76-.31A10.4,10.4,0,0,1,18.29,29a13.77,13.77,0,0,1-4-3.38A20.84,20.84,0,0,1,12,21.28,8.74,8.74,0,0,1,11.42,19c-.11-.83-.43-1.44-.56-2.26a11.81,11.81,0,0,1,1.21-6.85,21.44,21.44,0,0,1,1-2.06,6.73,6.73,0,0,1,1.39-1.71c.57-.48,1.2-.88,1.77-1.36s1-1.07,1.62-1.56a4.92,4.92,0,0,1,1.91-1c.75-.21,1.52-.31,2.26-.54s1.51-.56,2.29-.75a9.78,9.78,0,0,1,4.83.27A16.74,16.74,0,0,1,33.64,3a23.27,23.27,0,0,1,2,1.4C38.84,6.82,40,11,40.59,14.82A10.76,10.76,0,0,1,40.32,19.77Z"/><polygon class="cls-3" points="32.73 16.14 22.24 10.08 22.24 22.2 32.73 16.14"/></g></g></svg>